<svg width="149" height="166" viewBox="0 0 149 166" style="background-color: white;" fill="none" xmlns="http://www.w3.org/2000/svg">
<path d="M74.0098 165.99C71.059 165.99 68.1743 165.115 65.7208 163.476C63.2672 161.837 61.3548 159.506 60.2256 156.78C59.0963 154.054 58.8008 151.054 59.3765 148.16C59.9522 145.265 61.3732 142.607 63.4598 140.52C65.5464 138.434 68.2049 137.013 71.0991 136.437C73.9933 135.861 76.9932 136.157 79.7195 137.286C82.4458 138.415 84.7759 140.328 86.4154 142.781C88.0548 145.235 88.9299 148.119 88.9299 151.07C88.9246 155.026 87.3509 158.818 84.554 161.615C81.7571 164.411 77.9653 165.985 74.0098 165.99Z" fill="black"/>
<path d="M103.64 71.6498C100.815 64.2569 95.3292 58.1865 88.2593 54.6298C81.1893 51.0732 73.0454 50.287 65.4256 52.4255C57.8059 54.5641 51.2604 59.473 47.0735 66.189C42.8866 72.9049 41.3607 80.9431 42.7952 88.7262C44.2296 96.5093 48.5209 103.475 54.8269 108.258C61.1329 113.04 68.9983 115.293 76.8799 114.574C84.7614 113.856 92.0899 110.218 97.4274 104.375C102.765 98.5311 105.726 90.904 105.73 82.9898C105.73 79.114 105.022 75.2707 103.64 71.6498ZM74.0096 110.29C68.6102 110.29 63.332 108.689 58.8426 105.689C54.3531 102.689 50.854 98.4255 48.7877 93.4371C46.7214 88.4486 46.1808 82.9595 47.2342 77.6638C48.2876 72.3682 50.8876 67.5038 54.7056 63.6858C58.5236 59.8678 63.388 57.2677 68.6837 56.2144C73.9793 55.161 79.4685 55.7016 84.4569 57.7679C89.4453 59.8342 93.709 63.3333 96.7087 67.8228C99.7085 72.3122 101.31 77.5904 101.31 82.9898C101.299 90.227 98.4194 97.1647 93.302 102.282C88.1845 107.4 81.2468 110.279 74.0096 110.29Z" fill="black"/>
<path d="M105.711 15.4805C105.601 21.3212 103.87 27.0164 100.711 31.9305C100.391 32.4405 100.051 32.9305 99.7107 33.4305C96.7766 37.5185 92.9111 40.849 88.4342 43.1464C83.9573 45.4438 78.9977 46.6421 73.9657 46.6421C68.9337 46.6421 63.9741 45.4438 59.4972 43.1464C55.0203 40.849 51.1548 37.5185 48.2207 33.4305C47.8607 32.9371 47.5274 32.4371 47.2207 31.9305C44.059 27.0178 42.3276 21.3217 42.2207 15.4805H46.6407C46.7428 20.5369 48.2527 25.4647 51.0007 29.7105C51.3307 30.2305 51.6807 30.7105 52.0007 31.2105C54.5389 34.6257 57.8409 37.3997 61.6427 39.3109C65.4444 41.2222 69.6406 42.2176 73.8957 42.2176C78.1508 42.2176 82.347 41.2222 86.1487 39.3109C89.9505 37.3997 93.2525 34.6257 95.7907 31.2105C96.1507 30.7205 96.4907 30.2105 96.7907 29.7105C99.552 25.4703 101.066 20.5396 101.161 15.4805H105.711Z" fill="black"/>
<path d="M105.71 150.51H101.29C101.197 145.448 99.6827 140.513 96.9196 136.27C96.5896 135.75 96.2496 135.27 95.9196 134.77C93.3814 131.355 90.0794 128.581 86.2776 126.67C82.4759 124.759 78.2797 123.763 74.0246 123.763C69.7695 123.763 65.5733 124.759 61.7716 126.67C57.9698 128.581 54.6679 131.355 52.1296 134.77C51.7696 135.26 51.4196 135.77 51.1296 136.27C48.3803 140.519 46.8704 145.451 46.7696 150.51H42.3496C42.4578 144.666 44.189 138.967 47.3496 134.05C47.6696 133.544 48.0029 133.044 48.3496 132.55C51.2837 128.462 55.1492 125.132 59.6261 122.835C64.103 120.537 69.0626 119.339 74.0946 119.339C79.1266 119.339 84.0862 120.537 88.5631 122.835C93.04 125.132 96.9055 128.462 99.8396 132.55C100.19 133.04 100.53 133.55 100.84 134.05C103.997 138.969 105.728 144.667 105.84 150.51H105.71Z" fill="black"/>
<path d="M42.69 64.5102C40.5821 68.1055 37.7822 71.2471 34.4522 73.7531C31.1222 76.2592 27.3283 78.08 23.29 79.1102C21.621 79.5455 19.9183 79.8399 18.2 79.9902C17.59 80.0502 16.99 80.0902 16.39 80.1102H15.32C9.95646 80.0999 4.68397 78.7233 0 76.1102L0.199997 75.7502L2.2 72.2802C6.53384 74.6783 11.4404 75.847 16.39 75.6602C16.99 75.6602 17.59 75.5802 18.2 75.5202C19.5492 75.3787 20.8861 75.1381 22.2 74.8002C29.2047 72.9921 35.2058 68.4786 38.8861 62.2504C42.5664 56.0222 43.6251 48.5882 41.83 41.5802C41.4951 40.3154 41.0809 39.073 40.59 37.8602C40.35 37.3002 40.1 36.7602 39.83 36.2202C37.5329 31.5813 33.9506 27.7005 29.51 25.0402L31.51 21.5802L31.73 21.2002C36.8288 24.2555 40.9609 28.6891 43.65 33.9902C43.92 34.5202 44.18 35.0702 44.42 35.6302C46.4375 40.2358 47.3327 45.2545 47.0319 50.2736C46.7312 55.2926 45.243 60.1685 42.69 64.5002V64.5102Z" fill="black"/>
<path d="M147.99 89.8497L147.78 90.2097L145.78 93.6697C141.444 91.2792 136.537 90.1207 131.59 90.3197C130.98 90.3197 130.38 90.3797 129.78 90.4497C125.869 90.8522 122.092 92.095 118.707 94.0931C115.321 96.0913 112.407 98.7975 110.165 102.027C107.923 105.256 106.405 108.931 105.715 112.801C105.026 116.671 105.181 120.645 106.17 124.45C106.499 125.717 106.917 126.961 107.42 128.17C107.65 128.73 107.9 129.27 108.17 129.81C110.467 134.449 114.049 138.329 118.49 140.99L116.49 144.46L116.28 144.83C111.162 141.767 107.018 137.315 104.33 131.99C104.06 131.46 103.8 130.91 103.56 130.35C101.53 125.737 100.63 120.706 100.932 115.675C101.235 110.645 102.732 105.758 105.3 101.422C107.869 97.0854 111.433 93.4235 115.699 90.7397C119.965 88.0559 124.809 86.4276 129.83 85.9897C130.44 85.9297 131.03 85.8897 131.64 85.8697C137.35 85.6862 143.003 87.0621 147.99 89.8497Z" fill="black"/>
<path d="M46.08 125.5C45.6578 127.156 45.1027 128.774 44.42 130.34C44.18 130.9 43.92 131.45 43.65 131.98C40.9529 137.288 36.8103 141.725 31.7 144.78L31.49 144.41L29.49 140.94C33.938 138.283 37.5275 134.402 39.83 129.76C40.1 129.22 40.35 128.68 40.58 128.12C41.0798 126.911 41.4941 125.668 41.82 124.4C42.7162 120.929 42.9196 117.315 42.4185 113.765C41.9174 110.214 40.7217 106.798 38.8996 103.71C37.0776 100.622 34.6649 97.9235 31.7995 95.7685C28.9341 93.6135 25.6721 92.0442 22.2 91.1503C20.8863 90.8116 19.5493 90.5709 18.2 90.4303C17.6 90.3703 17 90.3203 16.4 90.2903C11.4503 90.1025 6.54348 91.2713 2.21001 93.6703L0.210007 90.2103L0 89.8503C5.00056 87.0488 10.6711 85.6657 16.4 85.8503C17 85.8503 17.6 85.8903 18.2 85.9703C19.9183 86.1207 21.621 86.415 23.29 86.8503C31.4345 88.9522 38.4111 94.202 42.6864 101.446C46.9618 108.689 48.186 117.334 46.09 125.48L46.08 125.5Z" fill="black"/>
<path d="M147.83 75.7805L148.04 76.1405C143.353 78.7535 138.077 80.1301 132.71 80.1405H131.64C131.04 80.1405 130.44 80.1005 129.84 80.0205C128.122 79.871 126.419 79.5766 124.75 79.1405C116.606 77.0385 109.629 71.7888 105.354 64.5451C101.078 57.3014 99.8542 48.6564 101.95 40.5105C102.367 38.8521 102.925 37.2328 103.62 35.6705C103.86 35.1105 104.11 34.5605 104.38 34.0305C107.074 28.7204 111.218 24.2824 116.33 21.2305L116.54 21.6105L118.54 25.0705C114.1 27.7308 110.517 31.6116 108.22 36.2505C107.95 36.7905 107.7 37.3305 107.47 37.8905C106.966 39.0983 106.551 40.3417 106.23 41.6105C105.246 45.415 105.095 49.3869 105.787 53.2552C106.479 57.1234 107.997 60.7968 110.239 64.0246C112.48 67.2523 115.391 69.9583 118.774 71.9578C122.157 73.9573 125.932 75.2032 129.84 75.6105C130.44 75.6705 131.04 75.7205 131.64 75.7505C136.596 75.9216 141.503 74.7319 145.83 72.3105L147.83 75.7805Z" fill="black"/>
<path d="M74.0098 97.9103C71.059 97.9103 68.1743 97.0353 65.7208 95.3958C63.2672 93.7564 61.3548 91.4262 60.2256 88.7C59.0963 85.9737 58.8008 82.9738 59.3765 80.0796C59.9522 77.1854 61.3732 74.5269 63.4598 72.4403C65.5464 70.3537 68.2049 68.9327 71.0991 68.357C73.9933 67.7813 76.9932 68.0768 79.7195 69.2061C82.4458 70.3353 84.7759 72.2477 86.4154 74.7012C88.0548 77.1548 88.9299 80.0394 88.9299 82.9903C88.9272 86.9465 87.3544 90.74 84.557 93.5374C81.7595 96.3349 77.9661 97.9077 74.0098 97.9103Z" fill="black"/>
<path d="M74.0098 29.84C71.059 29.84 68.1743 28.965 65.7208 27.3255C63.2672 25.6861 61.3548 23.3559 60.2256 20.6296C59.0963 17.9034 58.8008 14.9035 59.3765 12.0093C59.9522 9.11506 61.3732 6.45657 63.4598 4.36997C65.5464 2.28337 68.2049 0.862383 71.0991 0.286691C73.9933 -0.289 76.9932 0.0064615 79.7195 1.13572C82.4458 2.26498 84.7759 4.17732 86.4154 6.6309C88.0548 9.08448 88.9299 11.9691 88.9299 14.92C88.9272 18.8762 87.3544 22.6696 84.557 25.4671C81.7595 28.2646 77.9661 29.8374 74.0098 29.84Z" fill="black"/>
<path d="M15.3106 63.3305C12.6832 63.3187 10.1055 62.6139 7.8377 61.2871C5.56994 59.9602 3.69247 58.0584 2.39494 55.7738C1.0974 53.4892 0.425731 50.9026 0.447792 48.2753C0.469853 45.648 1.18486 43.073 2.52058 40.8105C3.85066 38.575 5.73922 36.7239 8.00083 35.4388C10.2624 34.1537 12.8194 33.4789 15.4206 33.4805C19.0538 33.4817 22.5616 34.8095 25.2849 37.2144C28.0083 39.6194 29.7598 42.9359 30.2104 46.5411C30.6611 50.1463 29.7798 53.792 27.7323 56.7933C25.6847 59.7946 22.6117 61.945 19.0906 62.8405C17.856 63.1612 16.5861 63.3258 15.3106 63.3305Z" fill="black"/>
<path d="M15.4302 132.5C12.8273 132.503 10.2683 131.829 8.00475 130.544C5.74123 129.259 3.85111 127.407 2.52016 125.17C1.18578 122.908 0.472233 120.333 0.451631 117.707C0.431029 115.081 1.1041 112.495 2.40282 110.212C3.70154 107.929 5.57989 106.03 7.84802 104.705C10.1162 103.381 12.6937 102.679 15.3202 102.67C18.5943 102.661 21.7806 103.729 24.3877 105.71C26.9947 107.691 28.8779 110.474 29.7467 113.631C30.6155 116.788 30.4217 120.143 29.1953 123.179C27.9689 126.214 25.7779 128.762 22.9602 130.43C20.6813 131.783 18.0804 132.498 15.4302 132.5Z" fill="black"/>
<path d="M132.561 132.5C129.936 132.488 127.36 131.784 125.094 130.459C122.827 129.134 120.95 127.234 119.652 124.953C118.354 122.671 117.681 120.087 117.7 117.462C117.719 114.836 118.43 112.263 119.761 110C121.092 107.763 122.982 105.911 125.245 104.626C127.509 103.341 130.068 102.667 132.671 102.67C135.296 102.681 137.873 103.384 140.139 104.709C142.406 106.034 144.283 107.934 145.581 110.217C146.878 112.499 147.55 115.084 147.529 117.709C147.508 120.335 146.795 122.908 145.461 125.17C144.131 127.405 142.242 129.257 139.98 130.542C137.719 131.827 135.162 132.502 132.561 132.5Z" fill="black"/>
<path d="M132.67 63.3305C131.394 63.3258 130.124 63.1612 128.89 62.8405C125.384 61.9293 122.329 59.7739 120.296 56.7764C118.262 53.7788 117.389 50.1439 117.838 46.5497C118.287 42.9554 120.029 39.6474 122.737 37.2426C125.446 34.8379 128.937 33.5007 132.56 33.4805C135.161 33.4789 137.718 34.1537 139.979 35.4388C142.241 36.7239 144.129 38.575 145.46 40.8105C146.789 43.0741 147.499 45.6477 147.518 48.2727C147.537 50.8976 146.864 53.4813 145.568 55.7639C144.271 58.0465 142.397 59.9475 140.133 61.2757C137.868 62.604 135.294 63.3126 132.67 63.3305Z" fill="black"/>
</svg>
